<?xml version="1.0" encoding="UTF-8" standalone="no"?>
<!-- Created with Inkscape (http://www.inkscape.org/) -->

<svg
   xmlns:dc="http://purl.org/dc/elements/1.1/"
   xmlns:cc="http://creativecommons.org/ns#"
   xmlns:rdf="http://www.w3.org/1999/02/22-rdf-syntax-ns#"
   xmlns:svg="http://www.w3.org/2000/svg"
   xmlns="http://www.w3.org/2000/svg"
   version="1.1"
   width="451.17923"
   height="173.62756"
   id="svg2">
  <defs
     id="defs4" />
  <metadata
     id="metadata7">
    <rdf:RDF>
      <cc:Work
         rdf:about="">
        <dc:format>image/svg+xml</dc:format>
        <dc:type
           rdf:resource="http://purl.org/dc/dcmitype/StillImage" />
        <dc:title></dc:title>
      </cc:Work>
    </rdf:RDF>
  </metadata>
  <g
     transform="translate(-60.830326,-469.86696)"
     id="layer1">
    <path
       d="m 104.1039,505.59034 349.51821,0"
       id="path3806"
       style="fill:none;stroke:#5e5e5e;stroke-width:11.69999981;stroke-linecap:butt;stroke-linejoin:miter;stroke-miterlimit:4;stroke-opacity:1;stroke-dasharray:none" />
    <path
       d="m 104.1039,538.60388 349.51821,0"
       id="path3808"
       style="fill:none;stroke:#5e5e5e;stroke-width:11.69999981;stroke-linecap:butt;stroke-linejoin:miter;stroke-miterlimit:4;stroke-opacity:1;stroke-dasharray:none" />
    <path
       d="m 104.1039,571.61743 349.51821,0"
       id="path3810"
       style="fill:none;stroke:#5e5e5e;stroke-width:11.69999981;stroke-linecap:butt;stroke-linejoin:miter;stroke-miterlimit:4;stroke-opacity:1;stroke-dasharray:none" />
    <path
       d="m 104.1039,604.63098 349.51821,0"
       id="path3812"
       style="fill:none;stroke:#5e5e5e;stroke-width:11.69999981;stroke-linecap:butt;stroke-linejoin:miter;stroke-miterlimit:4;stroke-opacity:1;stroke-dasharray:none" />
    <path
       d="m 104.1039,637.64452 349.51821,0"
       id="path3814"
       style="fill:none;stroke:#5e5e5e;stroke-width:11.69999981;stroke-linecap:butt;stroke-linejoin:miter;stroke-miterlimit:4;stroke-opacity:1;stroke-dasharray:none" />
    <g
       id="g4034">
      <g
         id="g3988">
        <path
           d="m 480.15476,497.26601 c 9.18585,0.69879 30.93014,-0.25018 30.93014,-0.25018 0,0 -21.89841,3.69435 -21.85024,4.32062 0.0482,0.62627 22.27491,5.84422 22.27491,5.84422 0,0 -29.46188,-4.4078 -36.91568,-4.90718 -7.45378,-0.49936 -22.35664,-0.60844 -22.35664,-0.60844 l 2.36437,4.61113 -4.23556,-10.09799 0.95452,-2.53018 c 0,0 19.64832,2.91922 28.83418,3.618 z"
           id="path3890"
           style="fill:#aa000d;fill-opacity:1;stroke:#000000;stroke-width:1px;stroke-linecap:butt;stroke-linejoin:miter;stroke-opacity:1" />
        <path
           d="m 95.283555,493.88483 c 12.278365,2.56318 21.447595,7.37505 29.364265,16.7447 7.75474,9.17797 7.77009,19.33226 16.26637,32.36001 8.49627,13.02777 11.76753,17.44593 25.46575,20.13064 13.69821,2.68472 13.85135,2.67021 26.49614,-1.65723 12.6448,-4.32744 18.49851,-3.69725 24.32918,-1.28463 5.83069,2.41262 14.27831,9.18584 22.69028,18.60571 8.41195,9.41986 13.70269,12.66269 19.80916,15.78379 6.10648,3.12109 11.65211,4.57438 16.97953,5.1131 5.32742,0.53872 10.82246,-0.14538 18.42485,-3.96017 7.60239,-3.8148 8.52691,-5.29334 17.54602,-14.1336 9.01912,-8.84027 17.89803,-15.03739 23.87609,-17.05737 5.97806,-2.01998 11.86069,-2.25992 24.19011,2.89792 12.3294,5.15784 12.48124,5.1825 26.32754,3.41364 13.84629,-1.76885 17.40381,-5.95994 26.74672,-18.39455 9.34291,-12.4346 15.96798,-29.532 20.86314,-33.22704 4.89517,-3.69504 15.40374,-2.57075 22.39612,-1.42629 6.99238,1.14446 31.66977,-0.71934 33.41664,-5.89083 0.10028,-1.06147 -10.15883,-2.69371 -16.46829,-5.30724 -6.30946,-2.61353 -16.30511,-9.66157 -16.48602,-10.89187 -0.2453,-1.66814 5.542,-6.35147 7.98357,-6.31423 3.62328,-0.0467 26.46763,-1.88771 30.54155,-3.2195 1.296,-1.45806 -3.33168,-11.14841 -7.24736,-13.21672 -3.91568,-2.0683 -14.13605,0.9701 -26.41705,-1.72328 -15.28944,-3.35317 -22.97448,7.72989 -30.03977,16.82124 -7.0653,9.09134 -8.38754,18.98632 -17.73044,31.42092 -9.3429,12.4346 -12.90042,16.6257 -26.74672,18.39454 -13.8463,1.76886 -13.99814,1.74421 -26.32754,-3.41363 -12.32941,-5.15784 -18.21205,-4.9179 -24.19011,-2.89793 -5.97807,2.01998 -14.85697,8.2171 -23.87608,17.05737 -9.01912,8.84026 -13.803,13.4642 -20.60448,16.53222 -6.80148,3.06802 -10.03309,2.73375 -13.67233,2.5667 -3.63923,-0.16704 -10.55724,-2.96168 -12.32776,-4.11261 -1.77051,-1.15092 -10.54258,-5.06162 -19.3836,-12.92874 -8.84102,-7.86713 -17.69062,-13.1857 -23.7744,-14.68242 -6.08376,-1.49672 -12.17227,-1.27717 -25.26304,4.66418 -13.09076,5.94134 -13.24971,5.97687 -27.5104,5.32771 -14.2607,-0.64916 -17.70694,-4.43408 -26.6744,-15.7567 -8.96745,-11.32261 -8.09072,-21.353 -16.69976,-29.11554 -8.64806,-7.79774 -18.69402,-12.02471 -30.607265,-12.58166 -12.66706,-0.59218 -26.328506,6.11359 -35.369439,12.94729 9.279781,-3.00494 21.050479,-10.22924 33.703229,-7.5879 z"
           id="path3820"
           style="fill:#52a806;fill-opacity:1;stroke:#000000;stroke-width:1.5;stroke-linecap:butt;stroke-linejoin:miter;stroke-miterlimit:4;stroke-opacity:1;stroke-dasharray:none" />
        <path
           d="m 470.60481,482.16263 a 5.2085991,4.0721774 0 1 1 -10.4172,0 5.2085991,4.0721774 0 1 1 10.4172,0 z"
           transform="matrix(1.1044491,-0.44086142,0.53870589,1.2392353,-322.10023,88.640013)"
           id="path3822"
           style="fill:#aecd58;fill-opacity:1;fill-rule:evenodd;stroke:#3c1e1e;stroke-width:0.9121421;stroke-linejoin:round;stroke-miterlimit:4;stroke-opacity:1;stroke-dasharray:none;stroke-dashoffset:0" />
        <path
           d="m 449.75826,477.31126 3.41185,7.49414"
           id="path3824"
           style="fill:none;stroke:#bbeb2e;stroke-width:1.85599995;stroke-linecap:round;stroke-linejoin:miter;stroke-miterlimit:4;stroke-opacity:0.73946378;stroke-dasharray:none" />
        <path
           d="m 446.71365,483.68526 9.88178,-5.42458"
           id="path3826"
           style="fill:none;stroke:#303c1e;stroke-width:1.41417515px;stroke-linecap:round;stroke-linejoin:miter;stroke-opacity:0.69348659" />
        <path
           d="m 449.75826,477.31126 3.41185,7.49414"
           id="path3828"
           style="fill:none;stroke:#567400;stroke-width:1.38900006;stroke-linecap:round;stroke-linejoin:miter;stroke-miterlimit:4;stroke-opacity:0.89655175;stroke-dasharray:none" />
        <path
           d="m 494.41692,486.96232 -3.26055,8.08897 -2.80377,-7.56556"
           id="path3870"
           style="fill:#fff7a9;fill-opacity:1;stroke:#000000;stroke-width:1px;stroke-linecap:butt;stroke-linejoin:miter;stroke-opacity:1" />
        <path
           d="m 488.41692,487.96232 -3.26055,8.08897 -2.80377,-7.56556"
           id="path3872"
           style="fill:#fff7a9;fill-opacity:1;stroke:#000000;stroke-width:1px;stroke-linecap:butt;stroke-linejoin:miter;stroke-opacity:1" />
        <g
           id="g3978">
          <path
             d="m 300.09743,578.73323 -0.54832,-16.97057 -11.99972,5.82571 z"
             id="path3894"
             style="fill:#663900;fill-opacity:1;stroke:#000000;stroke-width:1px;stroke-linecap:butt;stroke-linejoin:miter;stroke-opacity:1" />
          <path
             d="m 268.21283,580.39977 10.91752,-12.35958 -12.35761,-3.89389 z"
             id="path3896"
             style="fill:#663900;fill-opacity:1;stroke:#000000;stroke-width:1px;stroke-linecap:butt;stroke-linejoin:miter;stroke-opacity:1" />
          <path
             d="m 242.05562,564.38681 13.59467,-7.42787 -10.15787,-7.67579 z"
             id="path3898"
             style="fill:#663900;fill-opacity:1;stroke:#000000;stroke-width:1px;stroke-linecap:butt;stroke-linejoin:miter;stroke-opacity:1" />
          <path
             d="m 223.30951,550.80287 11.04196,-9.75778 -10.51642,-4.8334 z"
             id="path3900"
             style="fill:#663900;fill-opacity:1;stroke:#000000;stroke-width:0.99999994px;stroke-linecap:butt;stroke-linejoin:miter;stroke-opacity:1" />
          <path
             d="m 322.24366,562.50321 -6.05749,-16.71136 -10.06101,9.69833 z"
             id="path3902"
             style="fill:#663900;fill-opacity:1;stroke:#000000;stroke-width:1px;stroke-linecap:butt;stroke-linejoin:miter;stroke-opacity:1" />
          <path
             d="m 339.7928,548.91285 -1.02271,-17.74591 -12.41532,6.41417 z"
             id="path3904"
             style="fill:#663900;fill-opacity:1;stroke:#000000;stroke-width:1px;stroke-linecap:butt;stroke-linejoin:miter;stroke-opacity:1" />
          <path
             d="m 357.51575,549.61766 11.90001,-12.05793 -12.45927,-4.69346 z"
             id="path3906"
             style="fill:#663900;fill-opacity:1;stroke:#000000;stroke-width:0.99999994px;stroke-linecap:butt;stroke-linejoin:miter;stroke-opacity:1" />
          <path
             d="m 390.53099,552.28495 3.82446,-15.58213 -12.39614,2.23691 z"
             id="path3908"
             style="fill:#663900;fill-opacity:1;stroke:#000000;stroke-width:1px;stroke-linecap:butt;stroke-linejoin:miter;stroke-opacity:1" />
          <path
             d="m 206.12623,548.65581 0.27147,-11.20083 -8.0718,3.36064 z"
             id="path4016"
             style="fill:#663900;fill-opacity:1;stroke:#000000;stroke-width:1px;stroke-linecap:butt;stroke-linejoin:miter;stroke-opacity:1" />
          <path
             d="m 186.58574,552.92961 1.70852,-7.83647 -6.08178,1.25453 z"
             id="path4018"
             style="fill:#663900;fill-opacity:1;stroke:#000000;stroke-width:0.99999994px;stroke-linecap:butt;stroke-linejoin:miter;stroke-opacity:1" />
        </g>
      </g>
    </g>
  </g>
</svg>
